solid 
 facet normal  0.000000e+00 -1.000000e+00  0.000000e+00
   outer loop
     vertex -8.924422e-02 -1.700000e+00  3.965350e-01
     vertex -9.455886e-02 -1.700000e+00  3.887776e-01
     vertex -9.920095e-02 -1.700000e+00  3.806000e-01
   endloop
 endfacet
 facet normal  0.000000e+00 -1.000000e+00  0.000000e+00
   outer loop
     vertex -8.329486e-02 -1.700000e+00  4.038170e-01
     vertex -8.924422e-02 -1.700000e+00  3.965350e-01
     vertex -9.920095e-02 -1.700000e+00  3.806000e-01
   endloop
 endfacet
 facet normal  0.000000e+00 -1.000000e+00  0.000000e+00
   outer loop
     vertex -6.208222e-02 -1.700000e+00  4.223118e-01
     vertex -7.675307e-02 -1.700000e+00  4.105718e-01
     vertex -8.329486e-02 -1.700000e+00  4.038170e-01
   endloop
 endfacet
 facet normal  0.000000e+00 -1.000000e+00  0.000000e+00
   outer loop
     vertex -6.208222e-02 -1.700000e+00  4.223118e-01
     vertex -6.966539e-02 -1.700000e+00  4.167514e-01
     vertex -7.675307e-02 -1.700000e+00  4.105718e-01
   endloop
 endfacet
 facet normal  0.000000e+00 -1.000000e+00  0.000000e+00
   outer loop
     vertex -6.208222e-02 -1.700000e+00  4.223118e-01
     vertex -8.329486e-02 -1.700000e+00  4.038170e-01
     vertex -9.920095e-02 -1.700000e+00  3.806000e-01
   endloop
 endfacet
 facet normal  0.000000e+00 -1.000000e+00  0.000000e+00
   outer loop
     vertex  8.924422e-02 -1.700000e+00  3.965350e-01
     vertex  9.920095e-02 -1.700000e+00  3.806000e-01
     vertex  9.455886e-02 -1.700000e+00  3.887776e-01
   endloop
 endfacet
 facet normal  0.000000e+00 -1.000000e+00  0.000000e+00
   outer loop
     vertex  8.329486e-02 -1.700000e+00  4.038170e-01
     vertex  9.920095e-02 -1.700000e+00  3.806000e-01
     vertex  8.924422e-02 -1.700000e+00  3.965350e-01
   endloop
 endfacet
 facet normal  0.000000e+00 -1.000000e+00 -0.000000e+00
   outer loop
     vertex  7.675307e-02 -1.700000e+00  4.105718e-01
     vertex -9.920095e-02 -1.700000e+00  3.806000e-01
     vertex  9.920095e-02 -1.700000e+00  3.806000e-01
   endloop
 endfacet
 facet normal  0.000000e+00 -1.000000e+00  0.000000e+00
   outer loop
     vertex  7.675307e-02 -1.700000e+00  4.105718e-01
     vertex -5.405750e-02 -1.700000e+00  4.272134e-01
     vertex -6.208222e-02 -1.700000e+00  4.223118e-01
   endloop
 endfacet
 facet normal  0.000000e+00 -1.000000e+00  0.000000e+00
   outer loop
     vertex  7.675307e-02 -1.700000e+00  4.105718e-01
     vertex -4.564831e-02 -1.700000e+00  4.314215e-01
     vertex -5.405750e-02 -1.700000e+00  4.272134e-01
   endloop
 endfacet
 facet normal  0.000000e+00 -1.000000e+00  0.000000e+00
   outer loop
     vertex  7.675307e-02 -1.700000e+00  4.105718e-01
     vertex -3.691446e-02 -1.700000e+00  4.349060e-01
     vertex -4.564831e-02 -1.700000e+00  4.314215e-01
   endloop
 endfacet
 facet normal  0.000000e+00 -1.000000e+00  0.000000e+00
   outer loop
     vertex  7.675307e-02 -1.700000e+00  4.105718e-01
     vertex -2.791805e-02 -1.700000e+00  4.376423e-01
     vertex -3.691446e-02 -1.700000e+00  4.349060e-01
   endloop
 endfacet
 facet normal  0.000000e+00 -1.000000e+00  0.000000e+00
   outer loop
     vertex  7.675307e-02 -1.700000e+00  4.105718e-01
     vertex -1.872308e-02 -1.700000e+00  4.396108e-01
     vertex -2.791805e-02 -1.700000e+00  4.376423e-01
   endloop
 endfacet
 facet normal  0.000000e+00 -1.000000e+00  0.000000e+00
   outer loop
     vertex  7.675307e-02 -1.700000e+00  4.105718e-01
     vertex -9.394952e-03 -1.700000e+00  4.407975e-01
     vertex -1.872308e-02 -1.700000e+00  4.396108e-01
   endloop
 endfacet
 facet normal  0.000000e+00 -1.000000e+00  0.000000e+00
   outer loop
     vertex  7.675307e-02 -1.700000e+00  4.105718e-01
     vertex  1.240488e-16 -1.700000e+00  4.411940e-01
     vertex -9.394952e-03 -1.700000e+00  4.407975e-01
   endloop
 endfacet
 facet normal  0.000000e+00 -1.000000e+00  0.000000e+00
   outer loop
     vertex  7.675307e-02 -1.700000e+00  4.105718e-01
     vertex  9.394952e-03 -1.700000e+00  4.407975e-01
     vertex  1.240488e-16 -1.700000e+00  4.411940e-01
   endloop
 endfacet
 facet normal  0.000000e+00 -1.000000e+00  0.000000e+00
   outer loop
     vertex  7.675307e-02 -1.700000e+00  4.105718e-01
     vertex  1.872308e-02 -1.700000e+00  4.396108e-01
     vertex  9.394952e-03 -1.700000e+00  4.407975e-01
   endloop
 endfacet
 facet normal  0.000000e+00 -1.000000e+00  0.000000e+00
   outer loop
     vertex  7.675307e-02 -1.700000e+00  4.105718e-01
     vertex  2.791805e-02 -1.700000e+00  4.376423e-01
     vertex  1.872308e-02 -1.700000e+00  4.396108e-01
   endloop
 endfacet
 facet normal  0.000000e+00 -1.000000e+00  0.000000e+00
   outer loop
     vertex  7.675307e-02 -1.700000e+00  4.105718e-01
     vertex  3.691446e-02 -1.700000e+00  4.349060e-01
     vertex  2.791805e-02 -1.700000e+00  4.376423e-01
   endloop
 endfacet
 facet normal  0.000000e+00 -1.000000e+00  0.000000e+00
   outer loop
     vertex  7.675307e-02 -1.700000e+00  4.105718e-01
     vertex  4.564831e-02 -1.700000e+00  4.314215e-01
     vertex  3.691446e-02 -1.700000e+00  4.349060e-01
   endloop
 endfacet
 facet normal  0.000000e+00 -1.000000e+00  0.000000e+00
   outer loop
     vertex  7.675307e-02 -1.700000e+00  4.105718e-01
     vertex  5.405750e-02 -1.700000e+00  4.272134e-01
     vertex  4.564831e-02 -1.700000e+00  4.314215e-01
   endloop
 endfacet
 facet normal  0.000000e+00 -1.000000e+00  0.000000e+00
   outer loop
     vertex  7.675307e-02 -1.700000e+00  4.105718e-01
     vertex  6.208222e-02 -1.700000e+00  4.223118e-01
     vertex  5.405750e-02 -1.700000e+00  4.272134e-01
   endloop
 endfacet
 facet normal  0.000000e+00 -1.000000e+00  0.000000e+00
   outer loop
     vertex  7.675307e-02 -1.700000e+00  4.105718e-01
     vertex  6.966539e-02 -1.700000e+00  4.167514e-01
     vertex  6.208222e-02 -1.700000e+00  4.223118e-01
   endloop
 endfacet
 facet normal -0.000000e+00 -1.000000e+00  0.000000e+00
   outer loop
     vertex  7.675307e-02 -1.700000e+00  4.105718e-01
     vertex -6.208222e-02 -1.700000e+00  4.223118e-01
     vertex -9.920095e-02 -1.700000e+00  3.806000e-01
   endloop
 endfacet
 facet normal  0.000000e+00 -1.000000e+00  0.000000e+00
   outer loop
     vertex  7.675307e-02 -1.700000e+00  4.105718e-01
     vertex  9.920095e-02 -1.700000e+00  3.806000e-01
     vertex  8.329486e-02 -1.700000e+00  4.038170e-01
   endloop
 endfacet
endsolid
